<svg xmlns="http://www.w3.org/2000/svg" version="1.1" xmlns:xlink="http://www.w3.org/1999/xlink" xmlns:svgjs="http://svgjs.dev/svgjs" width="1500" height="477" viewBox="0 0 1500 477"><g transform="matrix(1,0,0,1,-0.9090909090911055,-1.5731586878337964)"><svg viewBox="0 0 396 126" data-background-color="#ffffff" preserveAspectRatio="xMidYMid meet" height="477" width="1500" xmlns="http://www.w3.org/2000/svg" xmlns:xlink="http://www.w3.org/1999/xlink"><g id="tight-bounds" transform="matrix(1,0,0,1,0.24000000000003752,0.41555135150326805)"><svg viewBox="0 0 395.5199999999999 125.16889729699348" height="125.16889729699348" width="395.5199999999999"><g><svg viewBox="0 0 660.36887445504 208.9847386346938" height="125.16889729699348" width="395.5199999999999"><g transform="matrix(1,0,0,1,264.84887445504,61.248849317346895)"><svg viewBox="0 0 395.52 86.48704000000001" height="86.48704000000001" width="395.52"><g id="textblocktransform"><svg viewBox="0 0 395.52 86.48704000000001" height="86.48704000000001" width="395.52" id="textblock"><g><svg viewBox="0 0 395.52 86.48704000000001" height="86.48704000000001" width="395.52"><g transform="matrix(1,0,0,1,0,0)"><svg width="395.52" viewBox="2.63 -36.36 213.05 46.59" height="86.48704000000001" data-palette-color="#71717a"><path d="M23.15-21.16L23.15-21.16 19.39-20.1Q19.03-21.04 18.35-21.94 17.67-22.83 16.5-23.42 15.32-24.01 13.49-24.01L13.49-24.01Q10.99-24.01 9.33-22.86 7.67-21.72 7.67-19.96L7.67-19.96Q7.67-18.39 8.81-17.49 9.94-16.58 12.36-15.98L12.36-15.98 16.41-14.99Q20.06-14.1 21.86-12.28 23.65-10.46 23.65-7.6L23.65-7.6Q23.65-5.26 22.31-3.41 20.97-1.56 18.57-0.5 16.18 0.57 13 0.57L13 0.57Q8.82 0.57 6.09-1.24 3.36-3.05 2.63-6.53L2.63-6.53 6.61-7.53Q7.17-5.33 8.76-4.23 10.35-3.13 12.93-3.13L12.93-3.13Q15.86-3.13 17.59-4.38 19.32-5.63 19.32-7.39L19.32-7.39Q19.32-8.81 18.32-9.77 17.33-10.74 15.27-11.22L15.27-11.22 10.72-12.29Q6.98-13.17 5.23-15.05 3.48-16.92 3.48-19.74L3.48-19.74Q3.48-22.05 4.79-23.83 6.09-25.6 8.35-26.62 10.62-27.63 13.49-27.63L13.49-27.63Q17.54-27.63 19.86-25.85 22.18-24.08 23.15-21.16ZM47.16-11.15L47.16-11.15 47.16-27.27 51.35-27.27 51.35 0 47.16 0 47.16-4.62 46.87-4.62Q45.91-2.54 43.89-1.09 41.87 0.36 38.78 0.36L38.78 0.36Q36.22 0.36 34.23-0.77 32.24-1.9 31.11-4.18 29.97-6.46 29.97-9.94L29.97-9.94 29.97-27.27 34.16-27.27 34.16-10.23Q34.16-7.24 35.84-5.47 37.52-3.69 40.13-3.69L40.13-3.69Q41.69-3.69 43.31-4.49 44.94-5.29 46.05-6.94 47.16-8.59 47.16-11.15ZM63.21 10.23L59.01 10.23 59.01-27.27 63.06-27.27 63.06-22.94 63.56-22.94Q64.02-23.65 64.85-24.76 65.67-25.87 67.23-26.75 68.78-27.63 71.44-27.63L71.44-27.63Q74.89-27.63 77.52-25.91 80.14-24.18 81.62-21.02 83.09-17.86 83.09-13.57L83.09-13.57Q83.09-9.23 81.62-6.06 80.14-2.89 77.53-1.16 74.92 0.57 71.51 0.57L71.51 0.57Q68.89 0.57 67.31-0.31 65.73-1.19 64.87-2.32 64.02-3.44 63.56-4.19L63.56-4.19 63.21-4.19 63.21 10.23ZM63.13-13.64L63.13-13.64Q63.13-10.55 64.04-8.19 64.95-5.84 66.69-4.52 68.43-3.2 70.95-3.2L70.95-3.2Q73.57-3.2 75.34-4.59 77.11-5.98 78-8.35 78.9-10.72 78.9-13.64L78.9-13.64Q78.9-16.51 78.02-18.83 77.14-21.15 75.38-22.51 73.61-23.86 70.95-23.86L70.95-23.86Q68.39-23.86 66.65-22.58 64.91-21.29 64.02-18.99 63.13-16.69 63.13-13.64ZM97.51 0.64L97.51 0.64Q94.91 0.64 92.8-0.35 90.69-1.33 89.45-3.2 88.2-5.08 88.2-7.74L88.2-7.74Q88.2-10.09 89.13-11.55 90.05-13.01 91.59-13.85 93.14-14.68 95.01-15.1 96.89-15.52 98.79-15.77L98.79-15.77Q101.27-16.09 102.82-16.26 104.38-16.42 105.1-16.83 105.82-17.24 105.82-18.25L105.82-18.25 105.82-18.39Q105.82-21.02 104.39-22.48 102.96-23.93 100.06-23.93L100.06-23.93Q97.06-23.93 95.36-22.62 93.65-21.31 92.96-19.82L92.96-19.82 88.98-21.24Q90.05-23.72 91.83-25.12 93.62-26.51 95.74-27.07 97.86-27.63 99.92-27.63L99.92-27.63Q101.24-27.63 102.95-27.32 104.66-27.01 106.27-26.05 107.88-25.09 108.94-23.15 110.01-21.22 110.01-17.97L110.01-17.97 110.01 0 105.82 0 105.82-3.69 105.6-3.69Q105.18-2.81 104.18-1.79 103.19-0.78 101.54-0.07 99.89 0.64 97.51 0.64ZM98.15-3.13L98.15-3.13Q100.63-3.13 102.35-4.1 104.06-5.08 104.94-6.62 105.82-8.17 105.82-9.87L105.82-9.87 105.82-13.71Q105.55-13.39 104.65-13.13 103.76-12.87 102.59-12.69 101.43-12.5 100.34-12.37 99.25-12.23 98.57-12.14L98.57-12.14Q96.94-11.93 95.53-11.46 94.12-10.99 93.25-10.06 92.39-9.13 92.39-7.53L92.39-7.53Q92.39-5.34 94.02-4.23 95.64-3.13 98.15-3.13ZM128.75 0.57L128.75 0.57Q124.92 0.57 122.15-1.24 119.38-3.05 117.89-6.23 116.4-9.41 116.4-13.49L116.4-13.49Q116.4-17.65 117.93-20.84 119.47-24.02 122.23-25.83 124.99-27.63 128.68-27.63L128.68-27.63Q131.56-27.63 133.87-26.56 136.18-25.5 137.65-23.58 139.12-21.66 139.48-19.11L139.48-19.11 135.29-19.11Q134.81-20.97 133.17-22.42 131.52-23.86 128.75-23.86L128.75-23.86Q126.3-23.86 124.47-22.59 122.63-21.32 121.61-19.03 120.59-16.73 120.59-13.64L120.59-13.64Q120.59-10.48 121.59-8.13 122.59-5.79 124.43-4.49 126.27-3.2 128.75-3.2L128.75-3.2Q130.39-3.2 131.72-3.76 133.05-4.33 133.97-5.4 134.9-6.46 135.29-7.95L135.29-7.95 139.48-7.95Q139.12-5.54 137.73-3.61 136.34-1.69 134.05-0.56 131.77 0.57 128.75 0.57ZM149.77-16.41L149.77-16.41 149.77 0 145.58 0 145.58-36.36 149.77-36.36 149.77-23.01 150.13-23.01Q151.09-25.12 153.01-26.38 154.94-27.63 158.16-27.63L158.16-27.63Q160.94-27.63 163.04-26.52 165.13-25.41 166.3-23.13 167.46-20.85 167.46-17.33L167.46-17.33 167.46 0 163.27 0 163.27-17.05Q163.27-20.29 161.59-22.08 159.91-23.86 156.95-23.86L156.95-23.86Q154.89-23.86 153.26-22.99 151.64-22.12 150.71-20.45 149.77-18.79 149.77-16.41ZM183.15 0.64L183.15 0.64Q180.56 0.64 178.45-0.35 176.33-1.33 175.09-3.2 173.85-5.08 173.85-7.74L173.85-7.74Q173.85-10.09 174.77-11.55 175.7-13.01 177.24-13.85 178.78-14.68 180.66-15.1 182.53-15.52 184.43-15.77L184.43-15.77Q186.92-16.09 188.47-16.26 190.02-16.42 190.74-16.83 191.46-17.24 191.46-18.25L191.46-18.25 191.46-18.39Q191.46-21.02 190.03-22.48 188.6-23.93 185.71-23.93L185.71-23.93Q182.71-23.93 181-22.62 179.3-21.31 178.61-19.82L178.61-19.82 174.63-21.24Q175.7-23.72 177.48-25.12 179.26-26.51 181.39-27.07 183.51-27.63 185.57-27.63L185.57-27.63Q186.88-27.63 188.59-27.32 190.31-27.01 191.92-26.05 193.52-25.09 194.59-23.15 195.65-21.22 195.65-17.97L195.65-17.97 195.65 0 191.46 0 191.46-3.69 191.25-3.69Q190.82-2.81 189.83-1.79 188.83-0.78 187.18-0.07 185.53 0.64 183.15 0.64ZM183.79-3.13L183.79-3.13Q186.28-3.13 187.99-4.1 189.7-5.08 190.58-6.62 191.46-8.17 191.46-9.87L191.46-9.87 191.46-13.71Q191.2-13.39 190.3-13.13 189.4-12.87 188.24-12.69 187.08-12.5 185.98-12.37 184.89-12.23 184.22-12.14L184.22-12.14Q182.58-11.93 181.17-11.46 179.76-10.99 178.9-10.06 178.04-9.13 178.04-7.53L178.04-7.53Q178.04-5.34 179.66-4.23 181.29-3.13 183.79-3.13ZM201.05-27.27L215.18-27.27 215.18-23.72 201.05-23.72 201.05-27.27ZM205.17-6.68L205.17-33.81 209.36-33.81 209.36-7.81Q209.36-6.04 209.88-5.16 210.41-4.28 211.23-3.99 212.06-3.69 212.98-3.69L212.98-3.69Q213.67-3.69 214.12-3.77 214.56-3.85 214.83-3.91L214.83-3.91 215.68-0.14Q215.25 0.02 214.49 0.19 213.73 0.36 212.55 0.36L212.55 0.36Q210.78 0.36 209.08-0.41 207.39-1.17 206.28-2.73 205.17-4.3 205.17-6.68L205.17-6.68Z" opacity="1" transform="matrix(1,0,0,1,0,0)" fill="#71717a" class="wordmark-text-0" data-fill-palette-color="primary" id="text-0"></path></svg></g></svg></g></svg></g></svg></g><g><svg viewBox="0 0 244.43135999999998 208.9847386346938" height="208.9847386346938" width="244.43135999999998"><g><svg xmlns="http://www.w3.org/2000/svg" xmlns:xlink="http://www.w3.org/1999/xlink" version="1.1" x="0" y="0" viewBox="4.6841208499454385 11.331262026321806 80.31587915005456 68.66873797367819" style="enable-background:new 0 0 90 90;" xml:space="preserve" height="208.9847386346938" width="244.43135999999998" class="icon-icon-0" data-fill-palette-color="accent" id="icon-0"><path d="M36 39.2C36 35.7 39.5 33 43 33H73.6C72.5 32 71.2 31.2 69.8 30.6L69.4 28.8C68.6 25.6 66.5 23 63.5 21.7 60.5 20.3 57.2 20.4 54.3 21.8L53.8 22.1 51.3 18.9C46.2 12.5 38.2 9.9 30.4 12.1 22.5 14.3 17 20.6 15.9 28.7L15.5 31.7 12.8 33.2C6.4 36.6 3.4 43.8 5.2 50.8S12.8 62.9 20 62.9H36z" fill="#3731a0" data-fill-palette-color="accent"></path><path d="M81.5 37H44.6C42.6 37 41 38.8 41 40.8V75.6C41 77.6 42.5 80 44.6 80H81.5C83.5 80 85 77.6 85 75.6V40.8C85 38.8 83.5 37 81.5 37M81 75H45V56H81zM76.4 41.3C78.2 41.3 79.7 42.8 79.7 44.6S78.2 47.9 76.4 47.9 73.1 46.4 73.1 44.6C73 42.8 74.5 41.3 76.4 41.3M67.2 41.3C69 41.3 70.5 42.8 70.5 44.6S69 47.9 67.2 47.9 63.9 46.4 63.9 44.6 65.4 41.3 67.2 41.3M58.1 41.3C59.9 41.3 61.4 42.8 61.4 44.6S59.9 47.9 58.1 47.9 54.8 46.4 54.8 44.6 56.3 41.3 58.1 41.3" fill="#3731a0" data-fill-palette-color="accent"></path></svg></g></svg></g></svg></g><defs></defs></svg><rect width="395.5199999999999" height="125.16889729699348" fill="none" stroke="none" visibility="hidden"></rect></g></svg></g></svg>